<svg xmlns="http://www.w3.org/2000/svg" version="1.1" xmlns:xlink="http://www.w3.org/1999/xlink" xmlns:svgjs="http://svgjs.com/svgjs" height="210.00031280517578" width="275.4499816894531"><defs id="SvgjsDefs1273"></defs><g id="SvgjsG1274" rel="mainfill" name="main_text" xmlns:name="main_text" transform="translate(-1.7300000190734863,-54.44969940185547)" fill="#1c9aea"><path d="M1.73 193.45Q1.73 194.14 2.56 194.52Q3.39 194.90 3.74 194.90Q4.50 194.90 5.40 194.66Q6.30 194.42 7.07 194.07Q4.09 193.31 4.09 192.54Q4.09 192.06 5.61 191.75Q7.14 191.44 9.01 191.23Q10.88 191.02 12.61 190.95Q14.34 190.88 14.76 190.88Q18.57 190.88 23.49 191.82Q28.40 192.75 33.57 194.55Q38.73 196.35 43.71 198.99Q48.70 201.62 52.58 204.95Q56.46 208.27 58.85 212.32Q61.24 216.38 61.24 220.95Q61.24 225.24 58.82 228.01Q56.39 230.79 52.82 232.41Q49.26 234.04 45.27 234.67Q41.29 235.29 38.17 235.29Q37.20 235.29 36.06 235.05Q34.92 234.80 32.56 234.25Q32.56 232.31 32.53 229.82Q32.49 227.32 32.46 225.00Q32.42 222.68 32.42 220.88Q32.42 219.08 32.42 218.39Q35.68 218.39 38.59 218.77Q41.50 219.15 43.65 219.70Q45.79 220.26 47.04 220.98Q48.29 221.71 48.29 222.33Q48.22 223.51 47.11 224.07Q46.00 224.62 45.03 225.04Q46.35 225.66 47.66 225.66Q48.49 225.66 49.40 225.24Q50.30 224.83 51.02 224.14Q51.75 223.44 52.20 222.58Q52.65 221.71 52.65 220.88Q52.65 219.08 51.58 217.76Q50.50 216.45 48.81 215.54Q47.11 214.64 45.00 214.06Q42.88 213.47 40.87 213.15Q38.86 212.84 37.17 212.74Q35.47 212.64 34.50 212.64L32.49 212.77L32.35 208.62Q32.28 205.98 31.66 204.18Q31.04 202.38 29.30 201.14Q28.68 202.73 28.20 204.67Q27.71 206.61 27.43 208.41Q27.16 210.21 26.98 211.56Q26.81 212.91 26.81 213.19Q24.52 213.81 21.72 214.37Q18.91 214.92 16.45 215.82Q13.99 216.72 12.33 218.11Q10.67 219.49 10.67 221.85Q10.67 224.07 11.64 225.97Q12.61 227.88 14.13 229.40Q15.66 230.92 17.49 232.10Q19.33 233.28 21.06 234.11Q22.79 234.94 24.18 235.39Q25.56 235.84 26.19 235.98Q26.19 237.71 26.71 239.10Q27.23 240.48 28.06 241.45L31.59 241.45Q31.94 240.28 32.04 239.69Q32.14 239.10 32.28 238.55Q37.20 239.65 42.12 239.65Q46.49 239.65 51.02 238.61Q55.56 237.58 59.27 235.32Q62.97 233.07 65.36 229.54Q67.75 226.01 67.75 220.95Q67.75 215.61 65.12 210.97Q62.49 206.33 58.19 202.49Q53.90 198.64 48.46 195.66Q43.02 192.68 37.44 190.64Q31.87 188.60 26.60 187.52Q21.34 186.45 17.46 186.45Q15.31 186.45 12.57 186.69Q9.84 186.93 7.45 187.66Q5.06 188.39 3.39 189.77Q1.73 191.16 1.73 193.45M26.53 218.52Q26.46 219.84 26.39 221.99Q26.33 224.14 26.26 226.28Q26.19 228.43 26.15 230.09Q26.12 231.76 26.12 232.03Q24.32 231.41 22.00 230.44Q19.67 229.47 17.60 228.15Q15.52 226.84 14.06 225.21Q12.61 223.58 12.61 221.71Q12.61 221.02 13.47 220.50Q14.34 219.98 15.69 219.60Q17.04 219.22 18.71 219.01Q20.37 218.80 21.93 218.70Q23.49 218.59 24.73 218.56Q25.98 218.52 26.53 218.52ZM71.22 210.00Q71.22 211.94 72.60 213.74Q72.53 213.95 72.53 214.23Q72.53 214.44 72.53 214.64Q72.53 216.24 73.85 217.28Q75.37 217.28 75.86 215.75Q77.04 216.03 77.80 216.10Q78.56 216.17 79.32 216.17Q80.99 216.17 83.17 215.37Q85.35 214.58 87.26 213.22Q89.16 211.87 90.48 210.11Q91.79 208.34 91.79 206.47Q91.79 203.14 88.26 202.73Q86.46 200.51 83.06 200.51Q81.19 200.51 79.08 201.27Q76.97 202.04 75.24 203.32Q73.50 204.60 72.36 206.33Q71.22 208.06 71.22 210.00M77.11 220.33Q77.11 220.88 76.97 222.85Q76.83 224.83 76.62 227.46Q76.41 230.09 76.27 233.04Q76.14 235.98 76.14 238.41Q76.27 239.38 77.11 239.72Q77.94 240.07 78.84 240.07Q79.81 240.07 80.26 239.76Q80.71 239.45 80.71 238.41Q80.71 236.26 80.60 233.28Q80.50 230.30 80.40 227.53Q80.29 224.76 80.15 222.75Q80.02 220.74 79.95 220.60Q78.84 219.49 77.45 219.49Q77.31 219.77 77.24 219.98Q77.18 220.19 77.11 220.33M78.08 212.22Q81.68 206.75 87.22 205.36Q87.64 205.36 88.19 205.67Q88.75 205.98 88.75 206.75Q87.50 209.73 84.97 211.04Q82.44 212.36 79.74 212.36Q79.32 212.36 78.91 212.36Q78.49 212.36 78.08 212.22M74.54 209.86Q74.82 206.33 78.98 204.88Q79.18 204.88 79.18 204.95L74.54 209.86ZM95.26 234.39Q95.26 237.64 97.09 238.96Q98.93 240.28 101.84 240.28Q103.15 240.28 105.68 239.69Q108.21 239.10 110.71 237.89Q113.20 236.67 115.07 234.87Q116.94 233.07 116.94 230.65Q116.94 228.71 115.97 228.08Q115.00 227.46 113.41 227.46Q109.25 227.46 106.51 227.84Q103.78 228.22 102.18 228.36Q106.13 224.14 110.50 222.33Q111.75 224.00 113.34 224.00Q114.93 224.00 115.59 222.92Q116.25 221.85 116.25 220.53Q116.25 217.55 111.68 217.55Q108.63 217.55 105.68 219.22Q102.74 220.88 100.42 223.41Q98.10 225.94 96.68 228.88Q95.26 231.83 95.26 234.39M99.34 235.22Q99.34 233.76 100.87 230.58Q101.15 233.97 103.09 233.97Q103.92 233.97 104.75 233.56Q105.58 233.14 106.34 232.62Q107.10 232.10 107.90 231.65Q108.70 231.20 109.53 231.20Q110.01 231.20 111.16 231.37Q112.30 231.55 112.78 231.69Q104.33 236.95 101.15 236.95Q99.34 236.95 99.34 235.22ZM120.41 210.00Q120.41 211.94 121.79 213.74Q121.72 213.95 121.72 214.23Q121.72 214.44 121.72 214.64Q121.72 216.24 123.04 217.28Q124.56 217.28 125.05 215.75Q126.22 216.03 126.99 216.10Q127.75 216.17 128.51 216.17Q130.17 216.17 132.36 215.37Q134.54 214.58 136.44 213.22Q138.35 211.87 139.66 210.11Q140.98 208.34 140.98 206.47Q140.98 203.14 137.45 202.73Q135.65 200.51 132.25 200.51Q130.38 200.51 128.27 201.27Q126.16 202.04 124.42 203.32Q122.69 204.60 121.55 206.33Q120.41 208.06 120.41 210.00M126.29 220.33Q126.29 220.88 126.16 222.85Q126.02 224.83 125.81 227.46Q125.60 230.09 125.46 233.04Q125.32 235.98 125.32 238.41Q125.46 239.38 126.29 239.72Q127.12 240.07 128.03 240.07Q129.00 240.07 129.45 239.76Q129.90 239.45 129.90 238.41Q129.90 236.26 129.79 233.28Q129.69 230.30 129.58 227.53Q129.48 224.76 129.34 222.75Q129.20 220.74 129.13 220.60Q128.03 219.49 126.64 219.49Q126.50 219.77 126.43 219.98Q126.36 220.19 126.29 220.33M127.26 212.22Q130.87 206.75 136.41 205.36Q136.82 205.36 137.38 205.67Q137.93 205.98 137.93 206.75Q136.69 209.73 134.16 211.04Q131.63 212.36 128.93 212.36Q128.51 212.36 128.09 212.36Q127.68 212.36 127.26 212.22M123.73 209.86Q124.01 206.33 128.16 204.88Q128.37 204.88 128.37 204.95L123.73 209.86ZM150.33 222.06Q149.71 224.48 149.29 226.35Q148.88 228.22 148.67 229.61Q148.46 230.99 148.36 232.07Q148.25 233.14 148.25 234.04Q148.25 235.91 148.64 237.37Q149.02 238.82 149.57 239.86Q150.13 240.90 150.75 241.42Q151.37 241.94 151.93 241.94Q152.69 241.94 153.59 241.59Q154.49 241.25 154.49 240.90Q154.42 239.86 154.28 239.62Q154.14 239.38 154.07 239.24Q153.73 237.92 153.59 236.43Q153.45 234.94 153.45 233.35Q153.45 230.51 153.90 227.88Q154.35 225.24 155.18 223.44L155.81 223.17Q156.91 223.17 158.09 222.96Q159.27 222.75 160.27 222.23Q161.28 221.71 161.94 220.88Q162.60 220.05 162.60 218.80Q162.60 216.72 161.42 215.48Q160.24 214.23 158.23 214.23Q156.50 214.23 155.25 215.20Q154.00 216.17 152.76 217.76Q148.67 217.55 146.11 214.99Q145.97 214.02 145.76 213.81Q145.55 213.61 145.35 213.61Q144.44 214.99 144.44 216.38Q144.44 219.77 150.33 222.06M160.03 217.14Q160.03 217.55 159.65 217.83Q159.27 218.11 158.75 218.25Q158.23 218.39 157.78 218.45Q157.33 218.52 157.12 218.52Q156.71 218.52 156.71 218.18Q156.71 217.35 157.50 216.79Q158.30 216.24 159.13 216.17Q159.89 216.38 160.03 217.14ZM175.34 218.45Q175.34 219.15 174.86 219.63Q173.47 221.57 172.61 222.89Q171.74 224.20 171.05 225.28Q170.35 226.35 169.77 227.43Q169.18 228.50 168.41 229.95L167.86 229.95Q166.96 229.95 166.27 230.16L166.27 230.92Q167.24 231.69 167.51 232.73Q166.06 235.36 166.06 237.23Q166.06 238.41 166.58 239.41Q167.10 240.42 168.35 240.42Q169.25 240.42 169.77 239.62Q170.29 238.82 170.35 238.48Q170.42 237.99 170.49 237.26Q170.56 236.54 170.77 235.84Q170.98 235.15 171.29 234.70Q171.60 234.25 172.09 234.25L177.01 234.25L177.21 234.53L177.49 237.78Q177.91 238.96 178.60 239.34Q179.29 239.72 180.26 239.72Q180.61 239.72 180.71 239.17Q180.82 238.61 180.82 238.20Q180.82 233.83 180.43 230.13Q180.05 226.42 179.50 223.72Q178.94 221.02 178.29 219.49Q177.63 217.97 177.01 217.97Q176.17 217.97 175.83 218.07Q175.48 218.18 175.34 218.45M173.82 229.68Q174.37 228.08 174.82 227.08Q175.27 226.08 175.90 225.31Q176.45 226.28 176.62 227.43Q176.80 228.57 176.80 229.61Q175.97 229.82 175.20 229.82Q174.86 229.82 174.51 229.78Q174.16 229.75 173.82 229.68ZM184.28 230.86Q184.28 232.38 184.45 234.01Q184.63 235.64 185.15 236.95Q185.66 238.27 186.60 239.13Q187.54 240 189.06 240Q190.17 240 191.48 239.45Q192.80 238.89 193.94 237.99Q195.09 237.09 195.85 235.98Q196.61 234.87 196.61 233.70Q196.61 232.03 195.43 232.03Q195.23 232.03 194.71 232.38Q194.19 232.73 193.39 233.11Q192.59 233.49 191.45 233.83Q190.31 234.18 188.85 234.18Q188.51 234.18 188.47 233.38Q188.44 232.59 188.44 232.10Q188.44 231.41 188.89 229.54Q189.34 227.67 189.89 225.59Q190.44 223.51 190.90 221.61Q191.35 219.70 191.35 218.87Q191.35 218.32 191.07 217.90Q190.79 217.48 189.75 217.48Q188.99 217.48 188.05 219.11Q187.12 220.74 186.29 222.92Q185.46 225.11 184.87 227.36Q184.28 229.61 184.28 230.86ZM200.07 236.12Q200.07 240.76 202.85 240.76Q203.88 240.76 205.55 240Q205.55 238.41 204.99 237.12Q204.44 235.84 204.44 234.46Q204.44 233.35 205.34 232.24Q207.28 231.76 208.80 231.34Q210.33 230.92 211.71 230.65Q213.10 230.37 214.45 230.20Q215.80 230.02 217.39 229.89Q218.16 228.92 218.16 227.81Q218.16 226.84 217.60 226.21L206.24 226.98Q206.52 224.41 207.49 222.61Q208.39 222.47 209.46 222.30Q210.54 222.13 211.51 221.99Q212.48 221.85 213.31 221.75Q214.14 221.64 214.48 221.64L216.77 221.85Q216.77 222.40 217.32 222.89Q217.88 223.37 218.85 223.44Q219.68 223.44 220.30 223.10Q220.93 222.75 221.34 222.26Q221.76 221.78 222.00 221.26Q222.24 220.74 222.24 220.33Q222.24 218.66 220.93 218.07Q219.61 217.48 218.02 217.48Q216.56 217.48 215.11 217.55Q213.65 217.62 212.03 217.80Q210.40 217.97 208.49 218.18Q206.59 218.39 204.30 218.66Q202.85 219.01 202.01 219.56Q202.01 220.67 202.22 221.85Q202.43 223.03 202.43 223.72Q200.07 231.83 200.07 236.12ZM228.62 238.06Q228.69 239.03 229.10 240.21Q229.52 241.39 230.49 242.77Q231.67 242.01 232.15 240.55Q234.99 240.55 238.21 239.48Q241.43 238.41 244.17 236.47Q246.91 234.53 248.71 231.76Q250.51 228.98 250.51 225.66Q250.51 222.54 248.71 220.57Q246.91 218.59 243.79 218.59Q241.57 218.59 239.42 220.29Q237.28 221.99 235.48 224.41Q233.67 226.84 232.22 229.44Q230.76 232.03 229.93 233.90Q229.10 232.38 229.10 230.51Q229.10 227.67 230.42 225.42Q231.73 223.17 233.81 221.57Q235.89 219.98 238.39 219.01Q240.88 218.04 243.30 217.83Q244.83 217.69 244.83 217.35Q244.83 216.93 244.14 216.62Q243.44 216.31 242.54 216.10Q241.64 215.89 240.78 215.79Q239.91 215.68 239.56 215.68Q236.93 215.68 234.44 216.69Q231.94 217.69 230.00 219.49Q228.06 221.29 226.89 223.72Q225.71 226.14 225.71 228.92Q225.71 231.06 226.47 233.56Q227.23 236.05 228.62 238.06M234.02 235.22Q234.99 231.69 236.03 229.19Q237.07 226.70 238.25 225.17Q239.42 223.65 240.84 222.96Q242.26 222.26 244.00 222.26Q247.25 222.26 247.25 225.73Q247.25 227.60 245.90 229.33Q244.55 231.06 242.72 232.38Q240.88 233.70 238.90 234.49Q236.93 235.29 235.68 235.29Q235.34 235.29 234.92 235.29Q234.51 235.29 234.02 235.22ZM265.20 226.08Q264.50 224.90 263.74 223.65Q262.98 222.40 262.32 221.36Q261.66 220.33 261.18 219.63Q260.69 218.94 260.48 218.73Q258.55 218.73 256.95 219.70Q256.95 221.16 257.58 222.68Q258.20 224.20 259.03 225.56Q259.86 226.91 260.66 227.88Q261.45 228.85 261.87 229.26Q260.69 230.02 259.34 231.65Q257.99 233.28 256.78 234.98Q255.57 236.67 254.77 238.06Q253.97 239.45 253.97 239.72Q253.97 241.59 256.74 241.59L264.43 232.38Q266.72 234.67 268.07 235.88Q269.42 237.09 270.11 237.68Q270.81 238.27 271.05 238.37Q271.29 238.48 271.43 238.48Q272.40 238.48 273.23 237.78Q274.06 237.09 274.06 235.70Q274.06 234.73 273.51 233.80Q272.95 232.86 271.78 232.86Q271.57 232.86 271.40 232.90Q271.22 232.93 271.02 233.00L267.62 229.26Q269.98 226.08 272.47 224.55Q274.96 223.03 276.77 222.26Q277.18 221.36 277.18 220.33Q277.18 219.36 276.63 218.84Q276.07 218.32 275.24 218.32Q273.65 218.32 272.19 219.25Q270.74 220.19 269.49 221.47Q268.24 222.75 267.17 224.07Q266.10 225.38 265.20 226.08Z" fill="#1c9aea" style="fill: rgb(28, 154, 234);"></path></g><g id="SvgjsG1275" rel="mainfill" name="slogan_text" xmlns:name="slogan_text" transform="translate(43.14498656988144,-30.219688415527344)" fill="#1c9aea"><path d="M5.55 240L5.55 230.21L9.38 230.21L9.38 228.81L0.06 228.81L0.06 230.21L3.90 230.21L3.90 240ZM10.96 228.81L10.96 240L18.85 240L18.85 238.60L12.59 238.60L12.59 234.77L17.03 234.77L17.03 233.39L12.59 233.39L12.59 230.21L18.85 230.21L18.85 228.81ZM28.42 240L30.25 240C28.95 236.97 27.32 232.50 26.12 228.81L23.47 228.81C22.01 232.36 20.50 236.47 19.33 240L21.01 240C21.34 238.99 21.67 237.95 22.03 236.89L27.21 236.89C27.61 238.01 28.05 239.07 28.42 240ZM24.95 230.16C25.48 231.86 26.09 233.72 26.73 235.49L22.49 235.49C23.13 233.67 23.81 231.88 24.50 230.16ZM37.37 236.60C36.38 234.03 35.17 231.30 33.99 228.81L31.67 228.81L31.67 240L33.25 240L33.25 230.88C34.40 233.40 35.61 236.32 36.64 238.88L37.89 238.88C38.93 236.36 40.17 233.47 41.36 230.88L41.36 240L42.96 240L42.96 228.81L40.78 228.81C39.57 231.28 38.37 234.01 37.37 236.60ZM55.03 228.54C51.52 228.54 49.83 229.77 49.83 234.33C49.83 238.94 51.52 240.22 55.03 240.22C58.57 240.22 60.23 238.94 60.23 234.33C60.23 229.77 58.55 228.54 55.03 228.54ZM55.03 238.76C52.38 238.76 51.60 237.99 51.60 234.37C51.60 230.61 52.38 229.98 55.03 229.98C57.70 229.98 58.50 230.61 58.50 234.37C58.50 237.99 57.70 238.76 55.03 238.76ZM62.69 228.81L62.69 240L64.31 240L64.31 235.33L68.76 235.33L68.76 233.95L64.31 233.95L64.31 230.21L70.43 230.21L70.43 228.81ZM82.53 231.40C83.16 233.88 83.95 237.05 84.51 240L86.60 240C87.80 236.47 88.99 232.36 89.87 228.81L88.20 228.81C87.48 231.94 86.69 234.77 85.60 238.09C85.10 235.42 84.03 231.44 83.32 228.81L81.75 228.81C81.22 231.48 80.08 235.52 79.31 238.09C78.52 234.73 77.61 231.54 76.69 228.81L74.89 228.81C75.98 231.86 77.22 236.34 78.17 240L80.24 240C81.12 237.08 82.04 233.90 82.53 231.40ZM91.48 228.81L91.48 240L99.36 240L99.36 238.60L93.10 238.60L93.10 234.77L97.54 234.77L97.54 233.39L93.10 233.39L93.10 230.21L99.36 230.21L99.36 228.81ZM102.97 238.62L102.97 234.73L106.87 234.73C107.84 234.73 108.27 235.54 108.27 236.74C108.27 237.90 107.92 238.62 106.94 238.62ZM102.97 230.19L106.81 230.19C107.75 230.19 108.03 230.75 108.03 231.76C108.03 232.68 107.74 233.40 106.81 233.40L102.97 233.40ZM107.48 234.03C109.47 233.85 109.75 232.87 109.75 231.48C109.75 229.95 109.28 228.81 107.05 228.81L101.35 228.81L101.35 240L107.18 240C108.98 240 110.02 239.02 110.02 236.89C110.02 235.28 109.60 234.12 107.48 234.03ZM120.16 240L121.99 240C120.69 236.97 119.07 232.50 117.87 228.81L115.22 228.81C113.76 232.36 112.25 236.47 111.08 240L112.76 240C113.08 238.99 113.42 237.95 113.78 236.89L118.96 236.89C119.36 238.01 119.80 239.07 120.16 240ZM116.70 230.16C117.23 231.86 117.84 233.72 118.48 235.49L114.24 235.49C114.88 233.67 115.56 231.88 116.25 230.16ZM125.05 230.19L128.58 230.19C129.59 230.19 130.15 230.88 130.15 232.18C130.15 233.37 129.57 234.06 128.51 234.06L125.05 234.06ZM128.88 235.07C131.23 235.04 131.96 233.64 131.96 232.07C131.96 230.30 131.26 228.81 128.83 228.81L123.42 228.81L123.42 240L125.05 240L125.05 235.44L126.88 235.44C127.66 235.44 128.91 236.90 130.68 240L132.72 240C130.89 236.95 129.67 235.34 128.88 235.07ZM138.55 240L138.55 230.21L142.37 230.21L142.37 228.81L133.06 228.81L133.06 230.21L136.89 230.21L136.89 240ZM143.96 228.81L143.96 240L145.58 240L145.58 228.81ZM155.87 229.00C155.00 228.73 153.72 228.54 152.63 228.54C149.69 228.54 147.99 229.48 147.99 232.01C147.99 234.06 149.17 234.81 151.76 235.02C153.94 235.22 154.46 235.92 154.46 236.90C154.46 238.33 153.36 238.73 151.49 238.73C150.49 238.73 149.27 238.56 148.58 238.33L148.18 239.74C149.06 240.03 150.39 240.22 151.52 240.22C154.49 240.22 156.19 239.33 156.19 236.82C156.19 234.73 155.02 233.77 152.39 233.53C150.27 233.35 149.74 232.84 149.74 231.86C149.74 230.45 150.75 230.03 152.63 230.03C153.65 230.03 154.91 230.21 155.48 230.43ZM166.19 240L168.02 240C166.72 236.97 165.10 232.50 163.90 228.81L161.25 228.81C159.79 232.36 158.28 236.47 157.11 240L158.79 240C159.11 238.99 159.45 237.95 159.80 236.89L164.99 236.89C165.39 238.01 165.82 239.07 166.19 240ZM162.72 230.16C163.25 231.86 163.86 233.72 164.51 235.49L160.27 235.49C160.91 233.67 161.58 231.88 162.27 230.16ZM178.47 228.81L176.84 228.81L176.84 237.58C175.21 234.62 173.43 231.57 171.62 228.81L169.45 228.81L169.45 240L171.06 240L171.06 230.77C173.00 233.84 174.84 236.97 176.48 240L178.47 240ZM188.78 229.00C187.91 228.73 186.63 228.54 185.54 228.54C182.60 228.54 180.90 229.48 180.90 232.01C180.90 234.06 182.09 234.81 184.67 235.02C186.85 235.22 187.37 235.92 187.37 236.90C187.37 238.33 186.28 238.73 184.40 238.73C183.40 238.73 182.18 238.56 181.49 238.33L181.09 239.74C181.97 240.03 183.31 240.22 184.43 240.22C187.40 240.22 189.10 239.33 189.10 236.82C189.10 234.73 187.93 233.77 185.30 233.53C183.18 233.35 182.65 232.84 182.65 231.86C182.65 230.45 183.66 230.03 185.54 230.03C186.56 230.03 187.82 230.21 188.39 230.43Z" fill="#1c9aea" style="fill: rgb(28, 154, 234);"></path></g><g id="SvgjsG1276" rel="mainfill" name="symbol" xmlns:name="symbol_mainfill" transform="translate(62.72438716888428,-16.49970245361328) scale(1.5)" fill="#1c9aea"><path d="M82.756,60.443c0.034-0.082,0.038-0.167,0.028-0.25c-0.001-0.01,0.005-0.019,0.004-0.029l-3.822-21.77l2.162-26.854  c0.016-0.198-0.087-0.387-0.262-0.481c-0.175-0.093-0.389-0.076-0.546,0.048L61.954,25.584H38.046L19.682,11.108  c-0.156-0.124-0.371-0.142-0.546-0.048c-0.175,0.094-0.278,0.283-0.262,0.481l2.162,26.854l-3.823,21.77  c-0.002,0.01,0.005,0.019,0.004,0.029c-0.01,0.083-0.007,0.168,0.028,0.25c0.001,0.002,0.003,0.002,0.003,0.004  c0.022,0.052,0.069,0.088,0.108,0.13c0.028,0.03,0.046,0.07,0.08,0.092c0.001,0.001,0.002,0.003,0.003,0.004l16.03,10.092  l6.04,12.042l0,0c0.001,0.002,0.003,0.003,0.004,0.005c0.033,0.065,0.079,0.122,0.137,0.166l7.667,5.917  C47.405,88.963,47.512,89,47.623,89h4.755c0.11,0,0.218-0.037,0.306-0.104l7.667-5.917c0.057-0.044,0.103-0.102,0.137-0.166  c0.001-0.002,0.003-0.003,0.004-0.005l0,0l6.041-12.042l16.029-10.092c0.001-0.001,0.002-0.003,0.003-0.004  c0.035-0.022,0.053-0.064,0.082-0.095c0.038-0.042,0.084-0.076,0.106-0.128C82.753,60.446,82.755,60.445,82.756,60.443z   M66.284,69.74l-7.536-10.775l-0.011-0.144l9.391-3.946l13.085,5.465L66.284,69.74z M54.412,86.298L50.5,84.318V83h1.877  c0.093,0,0.185-0.026,0.264-0.075l3.371-2.092l3.136,1.811L54.412,86.298z M40.852,82.644l3.136-1.811l3.371,2.092  C47.438,82.974,47.53,83,47.623,83H49.5v1.318l-3.912,1.98L40.852,82.644z M18.787,60.34l13.085-5.465l9.391,3.946l-0.011,0.144  L33.717,69.74L18.787,60.34z M68.1,53.15l-1.342-2.709l4.385-4.244L68.1,53.15z M34.068,51.03l9.143,5.136l-1.292,1.847  l-9.362-3.934L34.068,51.03z M35.765,50.836h5.836l1.426,4.08L35.765,50.836z M42.229,59.314l1.211-1.732l0.057,22.38l-2.971,1.715  L42.229,59.314z M44.436,55.999c0-0.024-0.008-0.047-0.012-0.071c-0.002-0.013,0.002-0.026-0.001-0.039  c-0.002-0.008-0.007-0.013-0.01-0.021c-0.003-0.011-0.002-0.022-0.006-0.033l-1.98-5.664c-0.07-0.201-0.26-0.335-0.472-0.335h-7.9  l-4.895-4.738l12.453,3.539l7.833,3.656L45.642,76.17l-1.149,2.119L44.436,55.999z M50,55.177l3.292,20.657h-6.583L50,55.177z   M54.358,76.17l-3.805-23.877l7.833-3.656l12.453-3.539l-4.895,4.738h-7.901c-0.212,0-0.402,0.134-0.472,0.335l-1.98,5.664  c-0.004,0.011-0.003,0.022-0.006,0.033c-0.002,0.007-0.008,0.013-0.01,0.021c-0.003,0.013,0.001,0.026-0.001,0.039  c-0.004,0.024-0.012,0.047-0.012,0.071l-0.057,22.291L54.358,76.17z M64.236,50.836l-7.263,4.08l1.426-4.08H64.236z M56.56,57.582  l1.211,1.732l1.702,22.363l-2.97-1.715L56.56,57.582z M56.79,56.166l9.143-5.136l1.511,3.049l-9.362,3.934L56.79,56.166z   M72.36,43.627l-13.517,3.841l3.634-20.494l15.216,11.49L72.36,43.627z M57.764,47.824L50,51.448l-7.764-3.624l-3.767-21.24h23.062  L57.764,47.824z M41.158,47.468l-13.517-3.841l-5.334-5.163l15.216-11.49L41.158,47.468z M33.243,50.441l-1.342,2.709l-3.043-6.953  L33.243,50.441z M41.103,60.923l-1.509,19.824l-5.16-10.288L41.103,60.923z M47.765,82l-3.103-1.926l1.758-3.24h7.16l1.758,3.24  L52.235,82H50H47.765z M58.897,60.923l6.669,9.537l-5.161,10.288L58.897,60.923z M81.644,59.437L68.79,54.068l4.246-9.704  l5.096-4.932L81.644,59.437z M78.036,37.469l-15.09-11.394l17.091-13.473L78.036,37.469z M19.963,12.602l17.091,13.473  l-15.09,11.394L19.963,12.602z M21.869,39.432l5.096,4.932l4.246,9.704l-12.855,5.369L21.869,39.432z M52.207,88h-4.414  l-1.328-1.025L50,85.186l3.534,1.79L52.207,88z" fill="#1c9aea" style="fill: rgb(28, 154, 234);"></path></g></svg>
